<svg xmlns="http://www.w3.org/2000/svg" width="821" height="821" viewBox="0 0 821 821">
  <g id="Grupo_72" data-name="Grupo 72" transform="translate(-22214 -7221)">
    <g id="picture" transform="translate(22356.398 7491.674)">
      <g id="Grupo_71" data-name="Grupo 71" transform="translate(0 0)">
        <path id="Trazado_199" data-name="Trazado 199" d="M326.918,341.232,123.809,66.53a6.381,6.381,0,0,0-3.955-2.477l-36.9-6.9A29.133,29.133,0,0,0,48.975,80.511L.5,341.412a29.224,29.224,0,0,0,23.3,34.044l260.16,48.619a29.386,29.386,0,0,0,5.4.5,29.163,29.163,0,0,0,28.575-23.857l10.133-54.532A6.378,6.378,0,0,0,326.918,341.232Z" transform="translate(0 -27.621)" fill="#bfd5dd"/>
        <path id="Trazado_200" data-name="Trazado 200" d="M455.021,51.645V317.127a29.177,29.177,0,0,1-29.147,29.147h-264.6a29.177,29.177,0,0,1-29.147-29.147V51.645A29.177,29.177,0,0,1,161.276,22.5h264.6a29.177,29.177,0,0,1,29.147,29.147Z" transform="translate(-19.819 -22.498)" fill="#e5f5f9"/>
        <path id="Trazado_201" data-name="Trazado 201" d="M502.359,51.645V317.127a29.177,29.177,0,0,1-29.147,29.147H447.729a29.144,29.144,0,0,0,29.147-29.147V51.645A29.144,29.144,0,0,0,447.729,22.5h25.483a29.177,29.177,0,0,1,29.147,29.147Z" transform="translate(-67.157 -22.498)" fill="#bfd5dd"/>
        <path id="Trazado_202" data-name="Trazado 202" d="M434.033,58.933V280.521a6.367,6.367,0,0,1-6.375,6.375H168.474a6.372,6.372,0,0,1-6.375-6.375V58.933a6.377,6.377,0,0,1,6.375-6.375H427.658a6.372,6.372,0,0,1,6.375,6.375Z" transform="translate(-24.314 -27.007)" fill="#5cd5ff"/>
        <path id="Trazado_203" data-name="Trazado 203" d="M476.394,58.933V280.521a6.367,6.367,0,0,1-6.375,6.375h-25.5a6.377,6.377,0,0,0,6.375-6.375V58.933a6.377,6.377,0,0,0-6.375-6.375h25.5a6.372,6.372,0,0,1,6.375,6.375Z" transform="translate(-66.676 -27.007)" fill="#5ab5ff"/>
      </g>
      <path id="Trazado_204" data-name="Trazado 204" d="M380.924,228.632v27.2a6.372,6.372,0,0,1-6.375,6.375h-130.2a6.372,6.372,0,0,1-6.375-6.375v-27.2a21.687,21.687,0,0,1,14.51-20.451l37.188-13.005a6.385,6.385,0,0,1,2.108-.357h35.335a6.385,6.385,0,0,1,2.108.357l15.487,5.415,21.7,7.591a21.687,21.687,0,0,1,14.51,20.451Z" transform="translate(-35.696 -48.345)" fill="#51697a"/>
      <path id="Trazado_205" data-name="Trazado 205" d="M399.759,229.651v27.2a6.372,6.372,0,0,1-6.375,6.375h-25.5a6.372,6.372,0,0,0,6.375-6.375V220.3a21.681,21.681,0,0,0-10.71-18.692l21.7,7.591A21.687,21.687,0,0,1,399.759,229.651Z" transform="translate(-54.531 -49.364)" fill="#354c5b"/>
      <path id="Trazado_206" data-name="Trazado 206" d="M350.208,140.878v25.628a34.219,34.219,0,0,1-34.179,34.179,33.867,33.867,0,0,1-12.172-2.244,34.224,34.224,0,0,1-22-31.935V140.878a34.224,34.224,0,0,1,22-31.935,33.867,33.867,0,0,1,12.172-2.244A34.219,34.219,0,0,1,350.208,140.878Z" transform="translate(-42.278 -35.128)" fill="#ffeb31"/>
      <path id="Trazado_207" data-name="Trazado 207" d="M354.09,140.878v25.628a34.219,34.219,0,0,1-34.179,34.179,33.867,33.867,0,0,1-12.172-2.244,34.241,34.241,0,0,0,22-31.935V140.878a34.241,34.241,0,0,0-22-31.935,33.867,33.867,0,0,1,12.172-2.244A34.219,34.219,0,0,1,354.09,140.878Z" transform="translate(-46.159 -35.128)" fill="#ffce00"/>
    </g>
    <rect id="Rectángulo_132" data-name="Rectángulo 132" width="821" height="821" transform="translate(22214 7221)" fill="none"/>
    <rect id="Rectángulo_133" data-name="Rectángulo 133" width="199" height="199" rx="99.5" transform="translate(22661 7374)" fill="#888"/>
    <rect id="Rectángulo_134" data-name="Rectángulo 134" width="20" height="104" transform="translate(22750 7422)" fill="#fff"/>
    <rect id="Rectángulo_135" data-name="Rectángulo 135" width="20" height="104" transform="translate(22812 7464) rotate(90)" fill="#fff"/>
  </g>
</svg>
